<?xml version="1.0" standalone="no"?>
<!DOCTYPE svg PUBLIC "-//W3C//DTD SVG 1.1//EN" "http://www.w3.org/Graphics/SVG/1.1/DTD/svg11.dtd" >
<svg xmlns="http://www.w3.org/2000/svg">
<metadata></metadata>
<defs>
<font id="block_s_regularregular" horiz-adv-x="1110" >
<font-face units-per-em="2048" ascent="1536" descent="-512" />
<missing-glyph horiz-adv-x="512" />
<glyph horiz-adv-x="2048" />
<glyph horiz-adv-x="2048" />
<glyph unicode="&#xd;" horiz-adv-x="2048" />
<glyph unicode=" "  horiz-adv-x="512" />
<glyph unicode="&#x09;" horiz-adv-x="512" />
<glyph unicode="&#xa0;" horiz-adv-x="512" />
<glyph unicode="!" horiz-adv-x="555" d="M184 1446h174q41 0 61.5 -18.5t20.5 -63.5q0 -136 -22 -393l-43 -498q-3 -34 -34.5 -57t-70.5 -23t-69 22.5t-33 57.5l-45 512q-23 307 -23 379q0 45 21.5 63.5t62.5 18.5zM348 0h-166q-41 0 -62.5 18.5t-21.5 63.5v156q0 45 21.5 63t62.5 18h166q43 0 63.5 -18t20.5 -63 v-156q0 -46 -20.5 -64t-63.5 -18z" />
<glyph unicode="&#x22;" horiz-adv-x="751" d="M150 1477h102q43 0 63.5 -18t20.5 -64v-125q-5 -88 -70 -283q-9 -28 -14.5 -41.5t-19 -26t-31.5 -12.5q-28 0 -41.5 19.5t-26.5 60.5q-61 192 -67 283v125q0 45 21.5 63.5t62.5 18.5zM520 1477h103q43 0 63.5 -18t20.5 -64v-125q-5 -88 -70 -283q-9 -27 -15 -41 t-19.5 -26.5t-31.5 -12.5q-19 0 -32.5 12.5t-19.5 26t-15 41.5q-63 196 -68 283v125q0 45 21.5 63.5t62.5 18.5z" />
<glyph unicode="#" horiz-adv-x="1366" d="M993 381l-39 -279q-18 -120 -133 -120q-57 0 -90 27.5t-33 76.5q0 8 3 30t4 29l32 236h-202l-39 -281q-15 -120 -134 -120q-57 0 -89.5 27.5t-32.5 76.5q0 6 10 86l29 211h-84q-62 0 -97 33.5t-35 93.5t34.5 93.5t97.5 33.5h120l27 194h-106q-62 0 -97 33.5t-35 93.5 t34.5 93.5t97.5 33.5h141l37 263q15 118 131 118q58 0 90.5 -27t32.5 -75q0 -3 -6 -51l-31 -228h205l36 265q15 118 132 118q57 0 89.5 -27.5t32.5 -74.5q0 -7 -4 -43l-30 -238h77q62 0 96.5 -33.5t34.5 -93.5q0 -61 -34 -94t-97 -33h-114l-25 -194h98q62 0 97 -33.5 t35 -93.5q0 -61 -34.5 -94t-97.5 -33h-135zM596 829l-27 -194h203l29 194h-205z" />
<glyph unicode="$" horiz-adv-x="894" d="M365 -102v82q-144 9 -207 30q-43 14 -63.5 34.5t-20.5 64.5v184q0 36 18 55t49 19q7 0 31 -7q91 -26 203 -26q55 0 92 23.5t37 70.5q0 48 -24.5 89t-63 72.5t-85.5 64t-94.5 74t-86 91.5t-63 126t-24.5 169q0 130 78 220.5t224 119.5v90q0 84 84 84h36q46 0 64 -20.5 t18 -63.5v-80q83 -6 146 -22q42 -12 62 -31t20 -63v-150q0 -72 -62 -72q-15 0 -69 15.5t-91 15.5q-75 0 -112 -23t-37 -77q0 -36 24.5 -68t63 -60t85.5 -59t94 -73t85.5 -93t63 -127.5t24.5 -168.5q0 -141 -83 -250.5t-214 -153.5v-106q0 -43 -18 -63.5t-64 -20.5h-36 q-84 0 -84 84z" />
<glyph unicode="%" horiz-adv-x="1705" d="M516 0h-29q-65 0 -65 47q0 21 6 35l647 1282q22 44 47.5 63t63.5 19h37q63 0 63 -47q0 -12 -10 -35l-653 -1282q-22 -44 -46 -63t-61 -19zM362 694q56 0 80.5 65t24.5 204t-24.5 203.5t-80.5 64.5q-58 0 -82 -63.5t-24 -204.5t24 -205t82 -64zM362 479q-329 0 -329 484 q0 483 329 483q164 0 246 -123t82 -360t-82 -360.5t-246 -123.5zM1352 215q56 0 80 64.5t24 203.5t-24 204t-80 65q-59 0 -83 -64.5t-24 -204.5t24 -204t83 -64zM1352 0q-330 0 -330 483q0 237 82.5 360.5t247.5 123.5q164 0 245.5 -123.5t81.5 -360.5q0 -483 -327 -483z " />
<glyph unicode="&#x26;" horiz-adv-x="1236" d="M608 952q29 0 65 31.5t36 79.5q0 113 -97 113q-92 0 -92 -109q0 -33 32 -74t56 -41zM539 270q44 0 69 18.5t25 35.5q0 11 -2.5 20.5t-5 14.5t-9.5 15.5t-10 14.5l-112 162q-28 41 -60 41q-33 0 -57.5 -46t-24.5 -112q0 -68 48.5 -116t138.5 -48zM520 -20 q-218 0 -351.5 121.5t-133.5 310.5q0 122 52.5 219.5t150.5 152.5q28 17 51.5 41t23.5 35q0 9 -39 80q-57 108 -57 197q0 81 32 143t88.5 98.5t126 55t150.5 18.5q165 0 259 -95t94 -261q0 -192 -181 -326q-38 -28 -38 -57q0 -21 20 -54l72 -112q13 -23 30 -23q33 0 33 74 q0 13 -3 38t-3 42q0 35 64 35h155q41 0 61.5 -17.5t20.5 -62.5q0 -57 -28 -144t-64 -145q-9 -15 -21 -30t-17 -22.5t-5 -15.5q0 -5 0.5 -9.5t3.5 -9.5t4.5 -8t7 -11.5t8.5 -12.5l70 -104q21 -34 21 -51q0 -40 -17.5 -55t-56.5 -15h-184q-31 0 -52 33q-26 45 -63 45 q-14 0 -54 -24.5t-102 -49t-129 -24.5z" />
<glyph unicode="'" horiz-adv-x="391" d="M150 1477h102q43 0 63.5 -18t20.5 -64v-125q-5 -88 -70 -283q-9 -28 -14.5 -41.5t-19 -26t-31.5 -12.5q-28 0 -41.5 19.5t-26.5 60.5q-61 192 -67 283v125q0 45 21.5 63.5t62.5 18.5z" />
<glyph unicode="(" horiz-adv-x="598" d="M63 670q0 230 55.5 423t150 303.5t204.5 110.5q41 0 61.5 -18.5t20.5 -63.5v-127q0 -44 -11.5 -63t-45.5 -45q-39 -30 -65.5 -105.5t-37 -168t-13.5 -148.5t-3 -98q0 -43 3 -98.5t13.5 -148t37 -168t65.5 -105.5q34 -26 45.5 -45.5t11.5 -65.5v-125q0 -45 -21 -64.5 t-61 -19.5q-66 0 -128 41.5t-112.5 118.5t-89 179.5t-59.5 232t-21 268.5z" />
<glyph unicode=")" horiz-adv-x="598" d="M532 670q0 -232 -55 -425.5t-148.5 -304t-203.5 -110.5q-43 0 -63.5 19t-20.5 65v125q0 46 11.5 65.5t45.5 45.5q41 30 68 105t37 168.5t13 147.5t3 99q0 44 -3 98t-13 147.5t-37 169t-68 105.5q-34 26 -45.5 45t-11.5 63v127q0 46 20.5 64t63.5 18q110 0 203.5 -110.5 t148.5 -303.5t55 -423z" />
<glyph unicode="*" horiz-adv-x="681" d="M434 1399v-101l92 33q20 4 25 4q38 0 49 -41q3 -16 8 -28l19 -56q4 -12 4 -26q0 -31 -41 -47l-92 -31l55 -78q14 -20 14 -39q0 -24 -26 -41l-25 -16q-4 -3 -21 -16t-26 -19q-22 -16 -39 -16q-21 0 -41 26l-59 78l-56 -76q-20 -26 -45 -26q-20 0 -34 14l-25 16 q-38 27 -47 35q-29 19 -29 43q0 19 12 37l60 80l-92 29q-41 15 -41 49q0 12 4 24l8 27q10 27 18 57q15 43 50 43q4 0 24 -4l92 -33v99q0 57 58 57h90q57 0 57 -57z" />
<glyph unicode="+" horiz-adv-x="1482" d="M918 508v-256q0 -78 -47.5 -120t-135.5 -42q-85 0 -130.5 42t-45.5 120v256h-250q-70 0 -108.5 41t-38.5 115t37.5 114.5t107.5 40.5h252v252q0 78 47 120t135 42q85 0 131 -42t46 -120v-252h256q72 0 109.5 -40t37.5 -117q0 -72 -39 -113t-108 -41h-256z" />
<glyph unicode="," horiz-adv-x="425" d="M190 -250h-24q-33 0 -47.5 9.5t-14.5 35.5q0 19 7 37l43 105q8 16 8 34q0 29 -25 29q-43 0 -63.5 18t-20.5 64v156q0 45 20.5 63t63.5 18h166q41 0 62.5 -18t21.5 -63v-166q-1 -15 -4.5 -28t-12.5 -32t-10 -22l-71 -160q-35 -80 -99 -80z" />
<glyph unicode="-" horiz-adv-x="462" d="M381 385h-297q-43 0 -63.5 18t-20.5 64v125q0 47 20 65.5t64 18.5h297q41 0 61.5 -18.5t20.5 -65.5v-125q0 -45 -20.5 -63.5t-61.5 -18.5z" />
<glyph unicode="." horiz-adv-x="425" d="M301 0h-166q-43 0 -63.5 18t-20.5 64v156q0 45 20.5 63t63.5 18h166q41 0 62.5 -18t21.5 -63v-156q0 -45 -21.5 -63.5t-62.5 -18.5z" />
<glyph unicode="/" horiz-adv-x="768" d="M225 0h-133q-63 0 -63 47q0 14 6 35l184 618q9 29 201 664q21 82 106 82h140q63 0 63 -47q0 -14 -6 -35l-188 -619q-192 -631 -203 -663q-21 -82 -107 -82z" />
<glyph unicode="0" d="M551 268q172 0 172 455q0 440 -172 440q-168 0 -168 -440q0 -217 41.5 -336t126.5 -119zM551 -20q-124 0 -222.5 62.5t-159.5 167.5t-92.5 236.5t-31.5 276.5q0 149 31.5 278t92.5 229t159.5 158t222.5 58q100 0 183.5 -36.5t142.5 -102t100 -156.5t60.5 -198.5 t19.5 -229.5q0 -153 -31.5 -285.5t-92.5 -235.5t-159.5 -162.5t-222.5 -59.5z" />
<glyph unicode="1" d="M510 82v905q0 43 -27 43q-10 0 -21.5 -5.5t-29.5 -19.5t-24 -18l-66 -45q-26 -20 -51 -20q-34 0 -64 41l-57 84q-20 33 -20 53q0 34 40 61l320 230q40 30 82 30h168q41 0 61.5 -18.5t20.5 -63.5v-1257q0 -45 -20.5 -63.5t-61.5 -18.5h-168q-41 0 -61.5 18.5t-20.5 63.5z " />
<glyph unicode="2" d="M1016 233v-151q0 -45 -20.5 -63.5t-61.5 -18.5h-848q-31 0 -40 16.5t-9 65.5v65q0 28 82 99q16 13 79 61.5t121 94t132.5 115t128.5 133.5t91.5 140t37.5 142q0 106 -52.5 155.5t-130.5 49.5q-35 0 -66 -9t-58 -29.5t-42.5 -58.5t-15.5 -90q0 -41 -18.5 -61.5 t-63.5 -20.5h-121q-46 0 -70 24t-24 64q0 103 27 186.5t73 139t108 93.5t129.5 54.5t141.5 16.5q80 0 152.5 -17t137.5 -56t112 -97t74.5 -144.5t27.5 -193.5q0 -260 -364 -584q-1 -1 -8 -6.5t-11 -10.5t-4 -9q0 -13 25 -13h266q41 0 61.5 -18.5t20.5 -63.5z" />
<glyph unicode="3" d="M506 -20q-62 0 -116 7.5t-100.5 24.5t-79 31.5t-71 42.5t-55.5 41.5t-53 44.5q-25 21 -25 64q0 32 29 61l98 100q27 27 53 27q23 0 41 -18q35 -37 65.5 -62.5t85 -48.5t114.5 -23q48 0 93 18.5t78 63t33 107.5q0 32 -11.5 57.5t-33.5 42.5t-45 29t-55 19.5t-54 11 t-51 6.5q-43 5 -63.5 21.5t-20.5 60.5v79q0 45 20.5 64.5t61.5 24.5q88 9 148.5 43t60.5 96q0 66 -44.5 103.5t-114.5 37.5q-46 0 -84 -11t-69.5 -35.5t-49 -41.5t-45.5 -49q-19 -19 -41 -19q-26 0 -53 27l-93 90q-28 28 -28 62t20 63q15 21 49.5 51t91 66.5t140 61 t172.5 24.5q124 0 231 -45t172.5 -130t65.5 -190q0 -147 -99 -233q-5 -4 -13.5 -11.5t-13 -11.5t-11 -10t-10.5 -10t-8 -8.5t-5.5 -8t-1.5 -6.5q0 -6 11.5 -12.5t32 -17.5t34.5 -23q127 -105 127 -299q0 -217 -134.5 -333.5t-375.5 -116.5z" />
<glyph unicode="4" d="M711 1421h100q41 0 62.5 -18.5t21.5 -63.5v-680q2 -31 20 -49t52 -18h20q41 0 61.5 -18.5t20.5 -63.5v-92q0 -48 -22 -76.5t-60 -28.5h-20q-34 0 -52 -17.5t-20 -47.5v-166q0 -45 -21.5 -63.5t-62.5 -18.5h-145q-43 0 -63.5 18t-20.5 64v166q-2 30 -20 47.5t-52 17.5 h-377q-38 0 -60 28.5t-22 76.5v31q0 46 27 92l514 800q29 44 53.5 62t65.5 18zM590 657v217q0 35 -17 35q-25 0 -41 -35l-112 -210q-10 -30 -10 -35q0 -19 11.5 -28t39.5 -9h76q30 0 41.5 16.5t11.5 48.5z" />
<glyph unicode="5" d="M496 1016q251 0 384.5 -133t133.5 -348q0 -250 -141.5 -402.5t-383.5 -152.5q-117 0 -230.5 35t-184 91t-70.5 113q0 33 29 62l98 100q27 27 53 27q22 0 41 -19q48 -51 106.5 -79.5t147.5 -28.5q83 0 149 64t66 159q0 101 -63 162t-172 61q-95 0 -166 -8t-86 -8 q-41 0 -62.5 18.5t-21.5 63.5v546q0 45 21.5 63.5t62.5 18.5h622q43 0 63.5 -18t20.5 -64v-110q0 -88 -84 -88h-321q-72 0 -72 -56v-18q0 -18 4 -29t14 -15.5t18 -5.5t24 -1z" />
<glyph unicode="6" d="M410 887q0 -15 18 -15q4 0 40.5 16.5t88.5 33t94 16.5q65 0 123 -14t114.5 -49t97 -88.5t65 -138.5t24.5 -193q0 -121 -42.5 -215t-113.5 -149t-156.5 -83t-178.5 -28q-136 0 -239 47t-168 134.5t-97.5 207.5t-32.5 272q0 128 19.5 241.5t66 218.5t117.5 180t180.5 120 t247.5 45q130 0 221 -25q38 -11 52 -29.5t14 -64.5v-129q0 -72 -62 -72q-18 0 -76 11.5t-114 11.5q-76 0 -136.5 -24t-95.5 -63t-53 -83.5t-18 -91.5zM571 645q-62 0 -111.5 -31t-72.5 -71q0 -126 46.5 -190t146.5 -64q82 0 132 39t50 127q0 59 -16 98.5t-45.5 58.5t-60 26 t-69.5 7z" />
<glyph unicode="7" d="M119 1421h833q95 0 95 -82q0 -37 -27 -96q-5 -11 -74.5 -155.5t-114 -244t-108.5 -250t-106 -281.5t-58 -232q-13 -80 -104 -80h-160q-41 0 -61.5 16.5t-20.5 61.5q0 38 59.5 218t110.5 294l190 428q0 1 5.5 4t5.5 14q0 30 -21.5 48t-54.5 18h-389q-41 0 -61.5 18.5 t-20.5 63.5v155q0 45 20.5 63.5t61.5 18.5z" />
<glyph unicode="8" d="M557 -20q-242 0 -374 110t-132 326q0 110 45 185t121 138q14 12 32.5 22.5t28 17t9.5 12.5t-11 13.5t-29 19.5t-30 24q-37 37 -58 64.5t-39 79.5t-18 116q0 164 126 261t329 97q204 0 329.5 -97t125.5 -261q0 -94 -29.5 -152.5t-83.5 -107.5q-13 -11 -32.5 -23.5 t-29.5 -20t-10 -13.5t10 -12.5t29 -17t33 -22.5q75 -62 119.5 -137.5t44.5 -185.5q0 -216 -132 -326t-374 -110zM686 1073q0 51 -40 83t-89 32q-54 0 -90.5 -34t-36.5 -81q0 -24 8 -42.5t30 -36.5t37.5 -27.5t51.5 -30.5q74 35 101.5 64.5t27.5 72.5zM539 274q78 0 135 37.5 t57 114.5q0 34 -13.5 63t-31.5 48t-48 36.5t-49.5 25.5t-49.5 19q-33 -18 -57 -33.5t-53 -39.5t-44.5 -54.5t-15.5 -64.5q0 -66 51 -109t119 -43z" />
<glyph unicode="9" d="M711 537q0 16 -21 16q-3 0 -35.5 -16.5t-87.5 -33t-114 -16.5q-65 0 -123.5 14t-115 49t-97 88.5t-65.5 138.5t-25 194q0 97 28.5 178t76 135t111 91t133 54t142.5 17q272 0 404.5 -166.5t132.5 -474.5q0 -129 -19.5 -244t-66 -223t-116.5 -186t-179.5 -125t-247.5 -47 q-110 0 -197 24q-42 12 -62 31t-20 63v107q0 38 16.5 62t45.5 24q18 0 70.5 -7.5t111.5 -7.5q76 0 138.5 24t101 62t59.5 83.5t21 91.5zM537 768q62 0 111 32.5t73 73.5q0 126 -55.5 190t-139.5 64q-77 0 -130.5 -46t-53.5 -119q0 -97 58.5 -146t136.5 -49z" />
<glyph unicode=":" horiz-adv-x="512" d="M336 694h-166q-41 0 -62.5 18.5t-21.5 63.5v156q0 45 21.5 63.5t62.5 18.5h166q43 0 63.5 -18t20.5 -64v-156q0 -46 -20.5 -64t-63.5 -18zM336 0h-166q-41 0 -62.5 18.5t-21.5 63.5v156q0 45 21.5 63t62.5 18h166q43 0 63.5 -18t20.5 -63v-156q0 -46 -20.5 -64t-63.5 -18 z" />
<glyph unicode=";" horiz-adv-x="512" d="M225 -250h-24q-33 0 -46.5 9.5t-13.5 35.5q0 22 6 37l41 105q9 24 9 34q0 29 -25 29q-41 0 -62.5 18.5t-21.5 63.5v156q0 45 21.5 63t62.5 18h166q43 0 63.5 -18t20.5 -63v-166q-2 -28 -25 -82l-73 -160q-35 -80 -99 -80zM338 694h-166q-41 0 -62.5 18.5t-21.5 63.5v156 q0 45 21.5 63.5t62.5 18.5h166q43 0 63.5 -18t20.5 -64v-156q0 -46 -20.5 -64t-63.5 -18z" />
<glyph unicode="&#x3c;" horiz-adv-x="1482" d="M616 623l562 -258q73 -33 73 -111q0 -76 -42 -129t-103 -53q-38 0 -94 26l-709 340q-82 39 -110.5 78t-28.5 105q0 64 29 101.5t100 70.5l692 333q77 39 125 39q60 0 101.5 -51t41.5 -123q0 -40 -25 -69t-79 -54z" />
<glyph unicode="=" horiz-adv-x="1482" d="M1171 774h-860q-69 0 -108 40.5t-39 111.5q0 75 38 115t109 40h860q72 0 110 -40.5t38 -116.5q0 -69 -40 -109.5t-108 -40.5zM1171 252h-860q-69 0 -108 39.5t-39 111.5q0 74 38.5 114t108.5 40h860q72 0 110 -39.5t38 -114.5q0 -70 -39.5 -110.5t-108.5 -40.5z" />
<glyph unicode="&#x3e;" horiz-adv-x="1482" d="M864 614l-559 258q-76 36 -76 111t43.5 128.5t104.5 53.5q38 0 94 -26l707 -340q82 -39 111.5 -78t29.5 -105q0 -58 -30.5 -98t-100.5 -74l-692 -333q-82 -39 -125 -39q-59 0 -100.5 51t-41.5 123q0 45 24 71.5t79 51.5z" />
<glyph unicode="?" horiz-adv-x="724" d="M289 473q-29 101 -29 199q0 68 31 188t31 139q0 51 -24 87t-69 36q-11 0 -35 -9t-38 -9q-32 0 -50 18t-18 54v151q0 44 20.5 64t63.5 34q99 31 203 31q127 0 211 -66.5t84 -195.5q0 -81 -18 -145t-43.5 -112t-51 -102.5t-43.5 -146.5t-18 -215q0 -34 -31.5 -57t-71.5 -23 q-80 0 -104 80zM471 0h-168q-41 0 -61.5 18.5t-20.5 63.5v156q0 45 20.5 63t61.5 18h168q41 0 61.5 -18t20.5 -63v-156q0 -45 -20.5 -63.5t-61.5 -18.5z" />
<glyph unicode="@" horiz-adv-x="1718" d="M1092 948l6 25q11 37 39 57.5t69 20.5q44 0 72.5 -23.5t28.5 -60.5q0 -25 -4 -39l-64 -299q-35 -172 -35 -226q0 -51 35 -51q44 0 95.5 79.5t85.5 193t34 206.5q0 213 -125.5 328t-339.5 115q-144 0 -276 -60.5t-227.5 -162t-152.5 -242t-57 -293.5q0 -264 167.5 -420.5 t447.5 -156.5q274 0 530 188q67 50 87 61t46 11q35 0 60.5 -28.5t25.5 -66.5q0 -83 -239 -217q-250 -141 -520 -141q-258 0 -465 119q-353 201 -353 639q0 196 75.5 373t204 305t307 203t376.5 75q290 0 462.5 -164.5t172.5 -441.5q0 -191 -69.5 -357t-186 -264t-250.5 -98 q-72 0 -122.5 37.5t-63.5 101.5q-113 -137 -254 -137q-133 0 -216 96.5t-83 251.5q0 153 63 288.5t169 216.5t226 81q138 0 218 -123zM1020 700q0 76 -36 120t-95 44q-89 0 -159.5 -109.5t-70.5 -250.5q0 -74 33 -117t90 -43q60 0 115.5 53.5t89 136t33.5 166.5z" />
<glyph unicode="A" horiz-adv-x="1193" d="M702 735l-65 244q-19 68 -51 68q-44 0 -60 -76l-51 -240q-16 -82 -16 -94q0 -45 29.5 -69.5t84.5 -24.5h48q57 0 79.5 21t22.5 61q0 24 -21 110zM821 80l-22 76q-23 75 -97 75h-217q-39 0 -69.5 -18t-40.5 -57l-21 -76q-11 -42 -31 -61t-57 -19h-190q-76 0 -76 70 q0 13 5.5 38.5t12.5 55.5t9 41l235 1093q32 142 148 142h335q49 0 88 -36.5t52 -86.5l270 -1112q2 -8 11 -40.5t14.5 -57t5.5 -37.5q0 -70 -80 -70h-184q-74 0 -101 80z" />
<glyph unicode="B" horiz-adv-x="1236" d="M154 1446h530q125 0 225.5 -43.5t162 -132.5t61.5 -209q0 -167 -93 -254q-11 -11 -29 -22.5t-29 -19t-11 -13.5t9 -12t27.5 -16.5t32.5 -23.5q68 -51 98.5 -116t30.5 -168q0 -212 -130.5 -314t-374.5 -102h-510q-41 0 -62.5 18.5t-21.5 63.5v1282q0 45 21.5 63.5 t62.5 18.5zM496 909h125q73 0 119 30.5t46 94.5q0 65 -45 96t-118 31h-127q-35 0 -53.5 -18t-18.5 -49v-109q0 -36 18.5 -56t53.5 -20zM823 451q0 147 -202 147h-125q-35 0 -53.5 -20t-18.5 -56v-143q0 -37 18.5 -57.5t53.5 -20.5h125q40 0 70.5 5t63 19t50.5 46t18 80z" />
<glyph unicode="C" horiz-adv-x="894" d="M772 330q41 0 62.5 -18.5t21.5 -63.5v-187q0 -45 -21.5 -63t-62.5 -18q-124 0 -235 30.5t-203.5 92.5t-160 149.5t-105 208t-37.5 262.5t37.5 262.5t105 208t160 149.5t203.5 92.5t235 30.5q41 0 62.5 -18.5t21.5 -63.5v-186q0 -45 -21.5 -63.5t-62.5 -18.5 q-63 0 -120.5 -14.5t-108 -45.5t-87 -76t-58 -111t-21.5 -146t21.5 -146t58 -111t87 -76t108 -45.5t120.5 -14.5z" />
<glyph unicode="D" horiz-adv-x="1366" d="M160 1446h487q102 0 200 -28.5t185.5 -87.5t153.5 -143t104.5 -204t38.5 -260t-38.5 -260t-104.5 -204t-153.5 -143t-185.5 -87.5t-200 -28.5h-487q-41 0 -62.5 18.5t-21.5 63.5v1282q0 45 21.5 63.5t62.5 18.5zM647 1108h-145q-35 0 -53.5 -18.5t-18.5 -49.5v-641 q0 -36 18.5 -56.5t53.5 -20.5h145q52 0 99 12t91 40t76 70t51 105.5t19 142.5q0 98 -29 179t-77 131.5t-107.5 78t-122.5 27.5z" />
<glyph unicode="E" horiz-adv-x="1024" d="M928 0h-762q-41 0 -62.5 18.5t-21.5 63.5v1282q0 45 21.5 63.5t62.5 18.5h721q41 0 61.5 -18.5t20.5 -63.5v-135q0 -45 -20.5 -63.5t-61.5 -18.5h-379q-35 0 -53.5 -18.5t-18.5 -49.5v-108q0 -36 18.5 -56t53.5 -20h377q41 0 61.5 -18.5t20.5 -65.5v-129q0 -45 -21 -64.5 t-61 -19.5h-377q-35 0 -53.5 -20t-18.5 -56v-143q0 -37 18.5 -57.5t53.5 -20.5h420q82 0 82 -88v-131q0 -45 -20.5 -63.5t-61.5 -18.5z" />
<glyph unicode="F" horiz-adv-x="937" d="M805 598h-301q-72 0 -72 -82v-434q0 -46 -20.5 -64t-63.5 -18h-186q-41 0 -62.5 18.5t-21.5 63.5v1282q0 45 21.5 63.5t62.5 18.5h700q41 0 61.5 -18.5t20.5 -63.5v-135q0 -45 -20.5 -63.5t-61.5 -18.5h-358q-35 0 -53.5 -18.5t-18.5 -49.5v-108q0 -36 18.5 -56t53.5 -20 h301q44 0 64 -18.5t20 -65.5v-129q0 -46 -20.5 -65t-63.5 -19z" />
<glyph unicode="G" horiz-adv-x="1366" d="M889 924h317q41 0 61.5 -18.5t20.5 -65.5v-740q0 -45 -20.5 -66.5t-61.5 -27.5q-95 -18 -293 -18q-126 0 -247 29.5t-234.5 94.5t-198.5 158t-136.5 231.5t-51.5 303.5q0 150 48 267.5t125 190t184.5 120t216.5 65.5t231 18q69 0 165 -10t134 -22q42 -12 62 -31.5 t20 -63.5v-163q0 -38 -12 -55t-41 -17q-49 0 -183.5 24.5t-206.5 24.5q-67 0 -133 -20t-124.5 -60t-95 -109.5t-36.5 -158.5q0 -118 46 -212.5t121 -150.5t162 -85t177 -29q33 0 52.5 20t19.5 55v132q0 36 -19.5 54.5t-52.5 18.5h-16q-41 0 -62.5 18.5t-21.5 63.5v150 q0 47 21.5 65.5t62.5 18.5z" />
<glyph unicode="H" horiz-adv-x="1366" d="M1210 0h-188q-41 0 -61.5 18.5t-20.5 63.5v416q0 36 -18.5 55.5t-53.5 19.5h-364q-35 0 -53.5 -17.5t-18.5 -47.5v-426q0 -46 -20.5 -64t-63.5 -18h-186q-41 0 -62.5 18.5t-21.5 63.5v1282q0 45 21.5 63.5t62.5 18.5h186q43 0 63.5 -18t20.5 -64v-375q0 -65 72 -65h364 q33 0 52.5 16.5t19.5 48.5v375q0 45 20.5 63.5t61.5 18.5h188q41 0 61.5 -18.5t20.5 -63.5v-1282q0 -45 -20.5 -63.5t-61.5 -18.5z" />
<glyph unicode="I" horiz-adv-x="512" d="M340 0h-186q-41 0 -62.5 18.5t-21.5 63.5v1282q0 45 21.5 63.5t62.5 18.5h186q43 0 63.5 -18t20.5 -64v-1282q0 -46 -20.5 -64t-63.5 -18z" />
<glyph unicode="J" horiz-adv-x="724" d="M635 1364v-905q0 -258 -92 -358.5t-324 -100.5h-141q-41 0 -61.5 18.5t-20.5 63.5v172q0 48 12 65t49 17h66q90 0 124 55.5t34 153.5v819q0 46 20.5 64t63.5 18h186q41 0 62.5 -18.5t21.5 -63.5z" />
<glyph unicode="K" horiz-adv-x="1193" d="M817 709l285 -516q3 -6 17.5 -30t23.5 -41t17.5 -38t8.5 -33q0 -30 -16.5 -40.5t-58.5 -10.5h-226q-38 0 -66.5 20t-58.5 60l-208 409q-28 54 -74 54q-14 0 -29.5 -15t-15.5 -39v-407q0 -46 -20.5 -64t-63.5 -18h-178q-41 0 -62.5 18.5t-21.5 63.5v1282q0 45 21.5 63.5 t62.5 18.5h178q43 0 63.5 -18t20.5 -64v-336q0 -25 12 -39t27 -14q34 0 71 53l242 338q60 80 125 80h225q42 0 59 -13.5t17 -46.5q0 -28 -84 -133l-268 -346q-49 -63 -49 -108q0 -44 24 -90z" />
<glyph unicode="L" horiz-adv-x="937" d="M838 0h-678q-41 0 -62.5 18.5t-21.5 63.5v1282q0 45 21.5 63.5t62.5 18.5h186q43 0 63.5 -18t20.5 -64v-950q0 -36 18.5 -57t53.5 -21h336q84 0 84 -88v-166q0 -46 -20.5 -64t-63.5 -18z" />
<glyph unicode="M" horiz-adv-x="1536" d="M418 692v-610q0 -46 -20.5 -64t-63.5 -18h-174q-41 0 -62.5 18.5t-21.5 63.5v1282q0 45 21.5 63.5t62.5 18.5h153q33 0 57 -12t35.5 -25t32.5 -43l293 -438q24 -37 41 -37q11 0 19 6.5t22 28.5l295 440q16 23 24 33t23.5 23.5t33 18.5t42.5 5h155q41 0 61.5 -18.5 t20.5 -63.5v-1282q0 -45 -20.5 -63.5t-61.5 -18.5h-176q-41 0 -61.5 18.5t-20.5 63.5v610q0 41 -30 41q-8 0 -16 -8t-27 -33l-193 -256q-29 -38 -47.5 -52.5t-42.5 -14.5t-41.5 14t-46.5 53l-195 256q-5 7 -11.5 16t-9 12t-6 7t-6.5 5t-7 1q-12 0 -21.5 -10t-9.5 -31z" />
<glyph unicode="N" horiz-adv-x="1323" d="M911 741v623q0 45 20.5 63.5t61.5 18.5h176q41 0 61.5 -18.5t20.5 -63.5v-1282q0 -45 -20.5 -63.5t-61.5 -18.5h-176q-26 0 -44 4.5t-33 18.5t-22 23t-24 34l-395 625q-15 25 -23 32.5t-18 7.5q-24 0 -24 -40v-623q0 -46 -20.5 -64t-63.5 -18h-174q-41 0 -62.5 18.5 t-21.5 63.5v1282q0 45 21.5 63.5t62.5 18.5h174q35 0 59 -11.5t34 -24t32 -44.5l395 -625q15 -25 23 -33t18 -8q24 0 24 41z" />
<glyph unicode="O" horiz-adv-x="1449" d="M1407 723q0 -141 -38 -262.5t-104 -208.5t-153 -149t-185.5 -92.5t-201.5 -30.5t-201.5 30.5t-185.5 92.5t-153 149t-104 208.5t-38 262.5t38 262.5t104 208.5t153 149t185.5 92.5t201.5 30.5t201.5 -30.5t185.5 -92.5t153 -149t104 -208.5t38 -262.5zM1061 723 q0 98 -31.5 176t-82 124t-107.5 69.5t-115 23.5t-115 -23.5t-107.5 -69.5t-82 -124t-31.5 -176t31.5 -176t82 -124t107.5 -69.5t115 -23.5t115 23.5t107.5 69.5t82 124t31.5 176z" />
<glyph unicode="P" horiz-adv-x="1236" d="M715 389h-219q-72 0 -72 -80v-227q0 -46 -20.5 -64t-63.5 -18h-186q-41 0 -62.5 18.5t-21.5 63.5v1282q0 82 84 82h499q136 0 246.5 -41t181 -112t108.5 -166t38 -205q0 -147 -61.5 -267.5t-179.5 -193t-271 -72.5zM891 932q0 115 -65 175t-152 60h-178q-34 0 -52 -17.5 t-20 -47.5v-334q0 -36 18.5 -56t53.5 -20h178q87 0 152 62t65 178z" />
<glyph unicode="Q" horiz-adv-x="1449" d="M1042 59q-141 -79 -315 -79q-103 0 -201.5 30.5t-185.5 92.5t-153 149t-104 208.5t-38 262.5t38 262.5t104 208.5t153 149t185.5 92.5t201.5 30.5t201.5 -30.5t185.5 -92.5t153 -149t104 -208.5t38 -262.5q0 -84 -28 -206.5t-66 -184.5q27 -2 88 -2q25 0 40 -18t15 -52 v-158q0 -46 -11 -61.5t-48 -26.5q-54 -14 -113 -14q-28 0 -51.5 4.5t-43 15t-29 16.5t-24.5 19l-16 13q-19 16 -28 16q-7 0 -15 -3.5t-20.5 -11.5t-16.5 -10zM852 356l-35 37q-20 20 -20 41q0 16 14 33l43 51q19 25 49 25q29 0 58 -29q20 -20 34 -20q10 0 17 10 q51 80 51 219q0 98 -31.5 176t-82 124t-107.5 69.5t-115 23.5t-115 -23.5t-107.5 -69.5t-82 -124t-31.5 -176t31.5 -176t82 -124t107.5 -69.5t115 -23.5q66 0 125 26z" />
<glyph unicode="R" horiz-adv-x="1150" d="M498 653q81 0 146.5 47.5t97.5 112.5t32 127q0 96 -58.5 145.5t-156.5 49.5h-61q-34 0 -53 -18t-19 -48v-340q0 -36 18.5 -56t53.5 -20zM498 328q-72 0 -72 -82v-164q0 -46 -20.5 -64t-63.5 -18h-186q-41 0 -62.5 18.5t-21.5 63.5v1282q0 82 84 82h393q575 0 575 -483 q0 -76 -20.5 -147t-54 -124.5t-64.5 -89.5t-63 -63q-27 -21 -27 -54q0 -24 53.5 -60.5t100.5 -45.5q35 -6 49 -22.5t14 -53.5v-209q0 -46 -23 -70t-61 -24q-73 0 -139.5 34t-114.5 82t-92.5 96t-91.5 82t-92 34z" />
<glyph unicode="S" horiz-adv-x="894" d="M55 1114q0 156 111.5 254t316.5 98q135 0 222 -24q42 -12 61.5 -31t19.5 -63v-150q0 -72 -61 -72q-25 0 -78.5 15.5t-81.5 15.5q-75 0 -112 -23t-37 -77q0 -36 24.5 -68t63 -60t85.5 -59t94 -73t85.5 -93t63 -127.5t24.5 -168.5q0 -120 -62 -219t-166 -154t-225 -55 q-157 0 -253 30q-43 14 -63.5 34.5t-20.5 64.5v184q0 36 18 55t49 19q23 0 98 -16.5t136 -16.5q55 0 92 23.5t37 70.5q0 48 -24.5 89t-63 72.5t-85.5 64t-94.5 74t-86 91.5t-63 126t-24.5 169z" />
<glyph unicode="T" horiz-adv-x="1024" d="M696 1059v-977q0 -45 -20.5 -63.5t-61.5 -18.5h-188q-41 0 -62.5 18.5t-21.5 63.5v983q0 29 -19.5 45t-52.5 16h-184q-41 0 -61.5 18.5t-20.5 63.5v156q0 45 20.5 63.5t61.5 18.5h852q41 0 61.5 -18.5t20.5 -63.5v-156q0 -45 -20.5 -63.5t-61.5 -18.5h-170 q-35 0 -53.5 -18t-18.5 -49z" />
<glyph unicode="U" horiz-adv-x="1366" d="M944 621v743q0 45 20.5 63.5t61.5 18.5h188q41 0 61.5 -18.5t20.5 -63.5v-727q0 -160 -31.5 -278t-84 -190t-132.5 -115t-165 -58.5t-195 -15.5t-195.5 15.5t-165.5 58.5t-132 115t-83.5 190t-31.5 278v727q0 45 21.5 63.5t62.5 18.5h186q43 0 63.5 -18t20.5 -64v-743 q0 -94 18 -157t53.5 -96t78.5 -46t104 -13q59 0 102 13t79.5 45.5t55.5 96t19 157.5z" />
<glyph unicode="V" d="M713 0h-297q-89 0 -107 80l-274 1161q-27 118 -27 135q0 70 76 70h176q40 0 69 -20t38 -60l165 -795q9 -53 31 -53t31 53l168 795q17 80 106 80h174q78 0 78 -70q0 -28 -26 -135l-277 -1161q-18 -80 -104 -80z" />
<glyph unicode="W" horiz-adv-x="1662" d="M1137 463q12 0 22 43l180 860q9 40 37 60t68 20h164q75 0 75 -70q0 -28 -26 -135l-275 -1161q-18 -80 -106 -80h-277q-86 0 -104 80l-55 227q-12 58 -33 58q-16 0 -31 -60l-51 -225q-18 -80 -104 -80h-215q-44 0 -70.5 17.5t-36.5 62.5l-274 1161q-2 9 -10 41t-12.5 55.5 t-4.5 38.5q0 70 76 70h176q40 0 67.5 -20t36.5 -60l185 -860q12 -55 32 -55q16 0 31 57l78 313q14 63 14 90q0 10 -3 25.5t-8 36.5t-7 31l-55 237q-1 3 -10 38t-14 58.5t-5 38.5q0 70 78 70h153q41 0 69.5 -20t37.5 -60l184 -860q10 -43 23 -43z" />
<glyph unicode="X" horiz-adv-x="1193" d="M825 670l295 -473q80 -122 80 -152q0 -45 -76 -45h-211q-83 0 -125 80l-151 293q-10 20 -14 26t-10.5 11.5t-16.5 5.5q-14 0 -22 -8.5t-21 -34.5l-152 -293q-42 -80 -125 -80h-202q-45 0 -59.5 8t-14.5 39q0 24 78 150l287 473q18 32 18 61q0 37 -18 62l-283 456 q-3 5 -20 30.5t-28.5 44t-22.5 41.5t-11 34q0 31 14.5 39t59.5 8h219q78 0 125 -80l135 -240q13 -26 21.5 -35.5t21.5 -9.5q11 0 19.5 10t21.5 35l135 240q47 80 125 80h219q45 0 59.5 -8t14.5 -39q0 -15 -11.5 -37.5t-38 -62.5t-32.5 -50l-283 -456q-18 -25 -18 -62 q0 -29 18 -61z" />
<glyph unicode="Y" horiz-adv-x="1236" d="M442 82v373q0 9 -2.5 21.5t-9.5 29.5t-11.5 29.5t-15.5 34.5t-15.5 30.5t-16.5 32t-13 26.5l-305 607q-2 5 -19 35.5t-26.5 53t-9.5 36.5q0 32 14.5 43.5t57.5 11.5h233q71 0 107 -80l165 -377q24 -53 46 -53t43 53l165 377q36 80 107 80h233q43 0 57.5 -11.5t14.5 -43.5 q0 -14 -9.5 -36.5t-26.5 -53t-19 -35.5l-303 -607q-6 -13 -26 -49t-30.5 -57.5t-21 -50t-10.5 -47.5v-373q0 -45 -20.5 -63.5t-61.5 -18.5h-189q-41 0 -61.5 18.5t-20.5 63.5z" />
<glyph unicode="Z" d="M147 1446h852q41 0 61.5 -18.5t20.5 -63.5q0 -50 -26 -96l-514 -852q-23 -31 -23 -51q3 -29 25 -29h456q41 0 61.5 -18.5t20.5 -63.5v-172q0 -45 -20.5 -63.5t-61.5 -18.5h-909q-41 0 -61.5 18.5t-20.5 63.5v16q0 45 27 92l518 857q22 29 22 53q-3 23 -24 26h-404 q-43 0 -63.5 18t-20.5 64v156q0 46 20.5 64t63.5 18z" />
<glyph unicode="[" horiz-adv-x="641" d="M498 1217h-41q-41 0 -57.5 -14.5t-16.5 -59.5v-953q0 -45 16.5 -60t57.5 -15h41q40 0 61 -19.5t21 -64.5v-103q0 -45 -21 -64.5t-61 -19.5h-326q-84 0 -84 84v1477q0 45 21.5 63.5t62.5 18.5h326q41 0 61.5 -18.5t20.5 -63.5v-107q0 -45 -20.5 -63t-61.5 -18z" />
<glyph unicode="\" horiz-adv-x="854" d="M309 1321l518 -1096q31 -68 31 -104q0 -70 -44 -110t-109 -40q-37 0 -74 25t-58 67l-553 1170q-26 59 -26 108q0 62 40.5 100t106.5 38q54 0 88.5 -30.5t79.5 -127.5z" />
<glyph unicode="]" horiz-adv-x="641" d="M186 1217h-41q-43 0 -63.5 18t-20.5 63v107q0 46 20.5 64t63.5 18h326q41 0 61.5 -18.5t20.5 -63.5v-1477q0 -45 -21 -64.5t-61 -19.5h-326q-43 0 -63.5 19t-20.5 65v105q0 46 20.5 65t63.5 19h41q41 0 57.5 14t16.5 59v953q0 45 -16.5 59.5t-57.5 14.5z" />
<glyph unicode="^" horiz-adv-x="1482" d="M739 1028l-180 -401q-30 -70 -115 -70q-68 0 -122 44t-54 99q0 30 27 88l262 553q37 78 81 106t101 28q113 0 174 -121l265 -537q36 -74 36 -119q0 -54 -51.5 -98.5t-115.5 -44.5q-74 0 -123 98z" />
<glyph unicode="_" horiz-adv-x="1024" d="M961 -481h-898q-43 0 -63 18t-20 64v84q0 48 20 66t63 18h898q41 0 61 -18.5t20 -65.5v-84q0 -45 -20 -63.5t-61 -18.5z" />
<glyph unicode="`" horiz-adv-x="598" d="M440 1110h-127q-24 0 -44 13.5t-29 27t-25 39.5l-80 133q-18 27 -18 51q0 22 21 33.5t52 11.5h166q41 0 61 -16.5t34 -61.5l43 -149q6 -18 6 -37q0 -26 -13.5 -35.5t-46.5 -9.5z" />
<glyph unicode="{" horiz-adv-x="671" d="M35 582v149q0 44 16 58t66 24q44 9 56.5 58t12.5 192v45q0 156 26.5 235.5t89 111.5t185.5 32h58q41 0 61.5 -18.5t20.5 -63.5v-109q0 -45 -20.5 -63.5t-61.5 -18.5q-47 0 -61.5 -32.5t-14.5 -116.5v-45q0 -84 -5 -142.5t-13.5 -94t-24.5 -57t-32.5 -30.5t-43.5 -14 q-8 -2 -15 -7t-7 -9v-9q0 -5 22 -12q47 -16 69.5 -41t36 -95t13.5 -204v-43q0 -85 14 -118t62 -33q41 0 61.5 -18.5t20.5 -63.5v-107q0 -45 -21 -64.5t-61 -19.5h-58q-177 0 -239 76.5t-62 288.5v82q0 105 -15 157.5t-54 65.5q-55 19 -68.5 30.5t-13.5 43.5z" />
<glyph unicode="|" horiz-adv-x="591" d="M322 -170h-134q-41 0 -62.5 18.5t-21.5 63.5v1493q0 45 21.5 63.5t62.5 18.5h134q43 0 63.5 -18t20.5 -64v-1493q0 -46 -20.5 -64t-63.5 -18z" />
<glyph unicode="}" horiz-adv-x="671" d="M637 731v-149q0 -32 -13.5 -43.5t-68.5 -30.5q-39 -13 -54.5 -66t-15.5 -157v-82q0 -212 -62 -288.5t-239 -76.5h-57q-40 0 -61 19.5t-21 64.5v107q0 45 20.5 63.5t61.5 18.5q48 0 62 33t14 118v43q0 134 13.5 204t36 95t69.5 41q22 7 22 12v9q0 4 -7 9t-15 7 q-27 5 -43.5 14t-32.5 30.5t-24.5 57t-13.5 94t-5 142.5v45q0 84 -14.5 116.5t-61.5 32.5q-41 0 -61.5 18.5t-20.5 63.5v109q0 45 20.5 63.5t61.5 18.5h57q123 0 185.5 -32t89 -111.5t26.5 -235.5v-45q0 -142 13 -191.5t57 -58.5q50 -10 66 -24t16 -58z" />
<glyph unicode="~" horiz-adv-x="1482" d="M715 842l98 -51q61 -31 87.5 -40.5t53.5 -9.5q42 0 76 18t76 60q31 31 52.5 46t31.5 17.5t27 2.5q52 0 90.5 -46t38.5 -108t-40.5 -123.5t-99 -104t-125 -69t-118.5 -26.5q-91 0 -207 59l-82 41q-91 47 -142 47q-45 0 -84.5 -22.5t-63.5 -49t-55.5 -49t-62.5 -22.5 q-52 0 -90.5 46t-38.5 109q0 56 37 116t93 106t124.5 76t128.5 30q94 0 195 -53z" />
<glyph unicode="&#xa2;" horiz-adv-x="724" d="M356 -102v116q-149 52 -237 178t-88 324q0 195 88 320.5t237 179.5v127q0 82 84 82h37q45 0 63.5 -20.5t18.5 -61.5v-90h31q43 0 64.5 -18.5t21.5 -63.5v-146q0 -46 -20.5 -64t-63.5 -18q-107 0 -173.5 -55t-66.5 -172q0 -58 24 -104t60.5 -71.5t75 -38.5t74.5 -13 q43 0 63.5 -18t20.5 -64v-146q0 -45 -20.5 -63t-63.5 -18h-27v-82q0 -43 -18 -63.5t-64 -20.5h-37q-84 0 -84 84z" />
<glyph unicode="&#xa3;" horiz-adv-x="1024" d="M221 633h-121q-41 0 -61.5 18.5t-20.5 63.5v78q0 45 21 64.5t61 19.5h60q-29 123 -29 245q0 198 130.5 281.5t395.5 83.5q29 0 72 -6t93.5 -18.5t85 -38.5t34.5 -60q0 -21 -12 -61l-15 -82q-8 -47 -17 -63.5t-30 -16.5q-19 0 -110 18.5t-148 18.5q-145 0 -145 -121 q0 -39 29 -180h213q41 0 61 -18.5t20 -65.5v-78q0 -45 -20 -63.5t-61 -18.5h-170q10 -49 10 -98q0 -55 -10 -96t-22 -58.5t-22 -33t-10 -25.5q0 -52 37 -52h398q81 0 81 -88v-100q0 -45 -20 -63.5t-61 -18.5h-826q-41 0 -61.5 18.5t-20.5 63.5v102q0 43 19.5 63t62.5 36 q84 34 114 86t30 123q0 49 -15 141z" />
<glyph unicode="&#xa5;" horiz-adv-x="1236" d="M319 727h-184q-43 0 -63.5 18t-20.5 64v39q0 82 84 82h84l-168 336q-2 5 -19 35.5t-26.5 53t-9.5 36.5q0 32 14.5 43.5t57.5 11.5h233q71 0 107 -80l165 -377q24 -53 45 -53q23 0 44 53l165 377q36 80 107 80h233q43 0 57.5 -11.5t14.5 -43.5q0 -14 -9.5 -36.5t-26.5 -53 t-19 -35.5l-170 -336h82q41 0 61.5 -18.5t20.5 -63.5v-39q0 -45 -20.5 -63.5t-61.5 -18.5h-183l-75 -147h252q41 0 61 -18.5t20 -63.5v-37q0 -45 -20 -63.5t-61 -18.5h-297v-297q0 -45 -20.5 -63.5t-61.5 -18.5h-189q-41 0 -61.5 18.5t-20.5 63.5v297h-295q-43 0 -63.5 18 t-20.5 64v37q0 82 84 82h252z" />
<glyph unicode="&#xad;" horiz-adv-x="462" d="M381 385h-297q-43 0 -63.5 18t-20.5 64v125q0 47 20 65.5t64 18.5h297q41 0 61.5 -18.5t20.5 -65.5v-125q0 -45 -20.5 -63.5t-61.5 -18.5z" />
<glyph unicode="&#x192;" horiz-adv-x="894" d="M678 961h65q76 0 76 -68v-14l-12 -134q-4 -47 -18.5 -62t-53.5 -15h-84q-39 0 -47.5 -19.5t-13.5 -103.5l-27 -428q-10 -163 -105.5 -234t-246.5 -71q-61 0 -102 10.5t-59 29t-24 35.5t-6 39q0 2 1.5 21.5t1.5 21.5l6 113q3 42 17.5 58t45.5 16q9 0 43 -3t47 -3 q27 0 37.5 19.5t13.5 59.5q4 50 11.5 145t12.5 166t5 74q0 37 -15 45.5t-67 8.5q-39 0 -50 13.5t-11 43.5q0 3 6 63l8 91q5 45 20.5 63.5t53.5 18.5h37q23 0 29 10.5t12 64.5l16 158q7 65 28.5 111.5t51 73.5t75 42.5t90 20t105.5 4.5h90q21 0 36.5 -2.5t34 -10.5 t28.5 -27.5t10 -49.5q0 -2 -2 -41t-2 -41l-6 -82q-4 -56 -19 -68t-69 -12h-82q-31 0 -41.5 -21t-10.5 -77v-25q0 -15 13.5 -21.5t46.5 -6.5z" />
<glyph unicode="&#x2000;" horiz-adv-x="814" />
<glyph unicode="&#x2001;" horiz-adv-x="1628" />
<glyph unicode="&#x2002;" horiz-adv-x="814" />
<glyph unicode="&#x2003;" horiz-adv-x="1628" />
<glyph unicode="&#x2004;" horiz-adv-x="542" />
<glyph unicode="&#x2005;" horiz-adv-x="407" />
<glyph unicode="&#x2006;" horiz-adv-x="271" />
<glyph unicode="&#x2007;" horiz-adv-x="271" />
<glyph unicode="&#x2008;" horiz-adv-x="203" />
<glyph unicode="&#x2009;" horiz-adv-x="325" />
<glyph unicode="&#x200a;" horiz-adv-x="90" />
<glyph unicode="&#x2010;" horiz-adv-x="462" d="M381 385h-297q-43 0 -63.5 18t-20.5 64v125q0 47 20 65.5t64 18.5h297q41 0 61.5 -18.5t20.5 -65.5v-125q0 -45 -20.5 -63.5t-61.5 -18.5z" />
<glyph unicode="&#x2011;" horiz-adv-x="462" d="M381 385h-297q-43 0 -63.5 18t-20.5 64v125q0 47 20 65.5t64 18.5h297q41 0 61.5 -18.5t20.5 -65.5v-125q0 -45 -20.5 -63.5t-61.5 -18.5z" />
<glyph unicode="&#x2012;" horiz-adv-x="462" d="M381 385h-297q-43 0 -63.5 18t-20.5 64v125q0 47 20 65.5t64 18.5h297q41 0 61.5 -18.5t20.5 -65.5v-125q0 -45 -20.5 -63.5t-61.5 -18.5z" />
<glyph unicode="&#x2013;" horiz-adv-x="1073" d="M932 385h-787q-43 0 -63.5 18t-20.5 64v125q0 47 20 65.5t64 18.5h787q41 0 61.5 -18.5t20.5 -65.5v-125q0 -45 -20.5 -63.5t-61.5 -18.5z" />
<glyph unicode="&#x2014;" horiz-adv-x="1632" d="M1489 385h-1344q-43 0 -63.5 18t-20.5 64v125q0 47 20 65.5t64 18.5h1344q41 0 61.5 -18.5t20.5 -65.5v-125q0 -45 -20.5 -63.5t-61.5 -18.5z" />
<glyph unicode="&#x2018;" horiz-adv-x="425" d="M252 1456h24q33 0 46.5 -9.5t13.5 -35.5q0 -22 -6 -37l-41 -104q-8 -16 -8 -35q0 -29 24 -29q41 0 62.5 -18.5t21.5 -63.5v-155q0 -45 -21.5 -63.5t-62.5 -18.5h-166q-43 0 -63.5 18t-20.5 64v166q2 28 25 82l74 159q35 80 98 80z" />
<glyph unicode="&#x2019;" horiz-adv-x="425" d="M186 887h-24q-36 0 -49 9.5t-13 35.5q0 22 6 37l44 102q8 19 8 37q0 29 -25 29q-43 0 -63.5 18t-20.5 64v155q0 46 20.5 64t63.5 18h166q41 0 62.5 -18.5t21.5 -63.5v-166q-1 -23 -27 -82l-71 -159q-35 -80 -99 -80z" />
<glyph unicode="&#x201c;" horiz-adv-x="894" d="M684 1456h25q33 0 46 -9.5t13 -35.5q0 -22 -6 -37l-41 -104q-8 -16 -8 -35q0 -29 24 -29q41 0 61.5 -18.5t20.5 -63.5v-155q0 -45 -20.5 -63.5t-61.5 -18.5h-168q-41 0 -61.5 18.5t-20.5 63.5v166q2 28 25 82l72 159q35 80 100 80zM283 1456h24q33 0 47.5 -9.5 t14.5 -35.5q0 -10 -9 -37l-41 -104q-8 -16 -8 -35q0 -29 25 -29q43 0 63.5 -18t20.5 -64v-155q0 -46 -20.5 -64t-63.5 -18h-166q-41 0 -62.5 18.5t-21.5 63.5v166q2 28 25 82l73 159q35 80 99 80z" />
<glyph unicode="&#x201d;" horiz-adv-x="894" d="M221 887h-24q-33 0 -46.5 9.5t-13.5 35.5q0 22 6 37l41 102q9 21 9 37q0 29 -25 29q-43 0 -63.5 18t-20.5 64v155q0 46 20.5 64t63.5 18h166q43 0 63.5 -18t20.5 -64v-166q-2 -28 -25 -82l-74 -159q-35 -80 -98 -80zM623 887h-27q-33 0 -46 9.5t-13 35.5q0 22 6 37 l41 102q8 19 8 37q0 29 -25 29q-41 0 -61.5 18.5t-20.5 63.5v155q0 45 20.5 63.5t61.5 18.5h168q41 0 61.5 -18.5t20.5 -63.5v-166q-2 -31 -24 -82l-72 -159q-35 -80 -98 -80z" />
<glyph unicode="&#x2026;" horiz-adv-x="2048" d="M446 0h-167q-41 0 -61.5 18.5t-20.5 63.5v156q0 45 20.5 63t61.5 18h167q41 0 61.5 -18t20.5 -63v-156q0 -45 -20.5 -63.5t-61.5 -18.5zM1137 0h-168q-41 0 -61.5 18.5t-20.5 63.5v156q0 45 20.5 63t61.5 18h168q41 0 61.5 -18t20.5 -63v-156q0 -45 -20.5 -63.5 t-61.5 -18.5zM1823 0h-166q-41 0 -62.5 18.5t-21.5 63.5v156q0 45 21.5 63t62.5 18h166q43 0 63.5 -18t20.5 -63v-156q0 -46 -20.5 -64t-63.5 -18z" />
<glyph unicode="&#x202f;" horiz-adv-x="325" />
<glyph unicode="&#x205f;" horiz-adv-x="407" />
<glyph unicode="&#x20ac;" horiz-adv-x="1122" d="M174 809h-68q-27 0 -39 9t-12 30q0 23 2 37q4 40 23.5 54.5t62.5 14.5h31q68 231 250 367.5t414 136.5q80 0 115.5 -8t44 -22t8.5 -48v-149q0 -60 -13.5 -79t-46.5 -19q-13 0 -53.5 6t-63.5 6q-92 0 -166.5 -57.5t-95.5 -133.5h271q42 0 55.5 -5.5t13.5 -24.5 q0 -7 -4 -35q-8 -50 -19 -65t-50 -15h-318q-6 -18 -8 -53q0 -16 1.5 -31t2.5 -22l2 -7h272q44 0 64 -6t20 -24q0 -7 -4 -35q-5 -28 -7.5 -40t-10 -25t-19.5 -17t-32 -4h-242q12 -64 47.5 -113t83.5 -75.5t98 -39t99 -12.5q14 0 42.5 4t37.5 4q43 0 43 -73v-179 q0 -34 -40 -51.5t-108 -17.5q-79 0 -156.5 17t-159.5 58t-150.5 102.5t-126.5 158t-91 217.5h-72q-27 0 -39 9t-12 30q0 29 2 43q4 40 23 54.5t61 14.5h25z" />
<glyph unicode="&#x25fc;" horiz-adv-x="1044" d="M0 1044h1044v-1044h-1044v1044z" />
</font>
</defs>
</svg>
